<svg width="20" height="20" viewBox="0 0 20 20" fill="none" xmlns="http://www.w3.org/2000/svg">
<path d="M10.7566 1.26661C10.8565 1.40091 10.9593 1.56823 11.0618 1.77594L11.0625 1.77739L12.8212 5.32378C13.0079 5.70643 13.3204 6.03434 13.644 6.27512C13.9688 6.51671 14.3724 6.72092 14.7898 6.79106L14.7902 6.79112L17.9795 7.32538C18.8671 7.47454 19.1613 7.82721 19.2302 8.0435C19.2994 8.2603 19.2638 8.72083 18.6229 9.36254L18.6211 9.36435L16.1414 11.8645C15.8197 12.1889 15.6047 12.6224 15.4862 13.0397C15.3676 13.4576 15.3234 13.9375 15.4218 14.3802L15.4218 14.3802L15.423 14.3852L16.1328 17.4796L10.7566 1.26661ZM8.94507 1.77593C9.04751 1.56823 9.15033 1.40091 9.25028 1.26661L9.2533 16.7453C9.03477 16.8015 8.82182 16.8853 8.62754 17.0014L5.63885 18.7852C4.61925 19.3925 4.14288 19.2626 4.01086 19.1656C3.87572 19.0662 3.6082 18.6431 3.87408 17.4797C3.87409 17.4797 3.8741 17.4796 3.87411 17.4796L4.5839 14.3852L4.58391 14.3852L4.58501 14.3802C4.68343 13.9375 4.63926 13.4576 4.52062 13.0397C4.40214 12.6224 4.18719 12.1889 3.86545 11.8646C3.86544 11.8646 3.86544 11.8645 3.86544 11.8645L1.38572 9.36435L1.38391 9.36254C0.743099 8.72083 0.707508 8.2603 0.77662 8.0435C0.845573 7.82721 1.13975 7.47454 2.02739 7.32538L5.21665 6.79112L5.21702 6.79106C5.63443 6.72092 6.03809 6.51671 6.36282 6.27512C6.68649 6.03432 6.99897 5.70638 7.1857 5.32369L8.94435 1.77739L8.94507 1.77593ZM15.996 19.1656C15.864 19.2626 15.3876 19.3925 14.368 18.7852L16.1329 17.4802C16.3986 18.6432 16.1311 19.0662 15.996 19.1656Z" stroke="#FFA6A0" stroke-width="1.5" stroke-linecap="round" stroke-linejoin="round"/>
</svg>