<svg width="16" height="16" viewBox="0 0 16 16" fill="none" xmlns="http://www.w3.org/2000/svg">
<path d="M9.33325 9.33333L10.9999 11" stroke="#838383" stroke-width="1.5" stroke-linejoin="round"/>
<path d="M10.9556 12.3501C10.5705 11.965 10.5705 11.3406 10.9556 10.9555C11.3407 10.5704 11.9651 10.5704 12.3502 10.9555L14.3779 12.9832C14.763 13.3683 14.763 13.9927 14.3779 14.3778C13.9928 14.7629 13.3684 14.7629 12.9833 14.3778L10.9556 12.3501Z" stroke="#838383" stroke-width="1.5" stroke-linecap="round"/>
<path d="M10.6666 5.99999C10.6666 3.42267 8.57725 1.33333 5.99992 1.33333C3.42259 1.33333 1.33325 3.42267 1.33325 5.99999C1.33325 8.57733 3.42259 10.6667 5.99992 10.6667C8.57725 10.6667 10.6666 8.57733 10.6666 5.99999Z" stroke="#838383" stroke-width="1.5" stroke-linejoin="round"/>
</svg>
