<svg width="27" height="28" viewBox="0 0 27 28" fill="none" xmlns="http://www.w3.org/2000/svg">
<path d="M9 18.5L18.8101 17.6825C21.8797 17.4268 22.5687 16.7563 22.9089 13.695L23.625 7.25" stroke="black" stroke-width="1.6875" stroke-linecap="round"/>
<path d="M6.75 7.25H24.75" stroke="black" stroke-width="1.6875" stroke-linecap="round"/>
<path d="M6.75 25.25C7.99264 25.25 9 24.2426 9 23C9 21.7574 7.99264 20.75 6.75 20.75C5.50736 20.75 4.5 21.7574 4.5 23C4.5 24.2426 5.50736 25.25 6.75 25.25Z" stroke="black" stroke-width="1.6875"/>
<path d="M19.125 25.25C20.3676 25.25 21.375 24.2426 21.375 23C21.375 21.7574 20.3676 20.75 19.125 20.75C17.8824 20.75 16.875 21.7574 16.875 23C16.875 24.2426 17.8824 25.25 19.125 25.25Z" stroke="black" stroke-width="1.6875"/>
<path d="M9 23H16.875" stroke="black" stroke-width="1.6875" stroke-linecap="round"/>
<path d="M2.25 2.75H3.33675C4.39952 2.75 5.32591 3.45266 5.58367 4.4543L8.93083 17.4611C9.09998 18.1184 8.95523 18.8147 8.53677 19.3568L7.46115 20.75" stroke="black" stroke-width="1.6875" stroke-linecap="round"/>
</svg>
