<svg width="22" height="22" viewBox="0 0 22 22" fill="none" xmlns="http://www.w3.org/2000/svg">
<path d="M12.7344 2.44418L14.4942 5.99288C14.7342 6.48687 15.3741 6.9607 15.9141 7.05143L19.1037 7.58575C21.1435 7.92853 21.6235 9.4206 20.1536 10.8925L17.6739 13.3927C17.2539 13.8161 17.024 14.6327 17.1539 15.2175L17.8639 18.3125C18.4238 20.7623 17.1339 21.71 14.9842 20.4296L11.9945 18.6452C11.4546 18.3226 10.5647 18.3226 10.0147 18.6452L7.0251 20.4296C4.88533 21.71 3.58548 20.7522 4.14542 18.3125L4.85534 15.2175C4.98532 14.6327 4.75535 13.8161 4.33539 13.3927L1.85567 10.8925C0.395828 9.4206 0.865778 7.92853 2.90555 7.58575L6.0952 7.05143C6.62514 6.9607 7.26507 6.48687 7.50504 5.99288L9.26483 2.44418C10.2247 0.518607 11.7845 0.518607 12.7344 2.44418Z" stroke="#FFA6A0" stroke-width="1.5" stroke-linecap="round" stroke-linejoin="round"/>
</svg>